<?xml version="1.0" encoding="iso-8859-1"?>
<!-- Generator: Adobe Illustrator 19.0.0, SVG Export Plug-In . SVG Version: 6.00 Build 0)  -->
<svg version="1.1" id="Layer_1" xmlns="http://www.w3.org/2000/svg" xmlns:xlink="http://www.w3.org/1999/xlink" x="0px" y="0px"
	 viewBox="0 0 512 512" style="enable-background:new 0 0 512 512;" xml:space="preserve">
<path style="fill:#32BEA6;" d="M256,0C177.336,82.664,46.664,64,46.664,64s0,92,0,224S256,512,256,512s209.336-92,209.336-224
	s0-224,0-224S334.664,82.664,256,0z"/>
<path style="fill:#FFFFFF;" d="M239.776,381.128v-29.064c-20.512-0.92-40.4-6.432-52.04-13.16l9.2-35.816
	c12.864,7.032,30.904,13.456,50.816,13.456c17.448,0,29.384-6.728,29.384-18.968c0-11.64-9.792-18.992-32.448-26.64
	c-32.752-11.016-55.104-26.32-55.104-56c0-26.944,18.992-48.056,51.744-54.48v-29.088h29.984v26.944
	c20.512,0.92,34.296,5.184,44.392,10.096L306.832,203c-7.952-3.368-22.032-10.416-44.088-10.416c-19.888,0-26.32,8.576-26.32,17.144
	c0,10.096,10.72,16.528,36.736,26.32c36.416,12.864,51.12,29.68,51.12,57.248c0,27.24-19.288,50.496-54.48,56.624v31.2h-30.024
	V381.128z"/>
<g>
</g>
<g>
</g>
<g>
</g>
<g>
</g>
<g>
</g>
<g>
</g>
<g>
</g>
<g>
</g>
<g>
</g>
<g>
</g>
<g>
</g>
<g>
</g>
<g>
</g>
<g>
</g>
<g>
</g>
</svg>
